<?xml version="1.0" encoding="UTF-8" standalone="no"?>
<!-- Created with Inkscape (http://www.inkscape.org/) -->

<svg
   width="224.56909mm"
   height="97.857605mm"
   viewBox="0 0 224.56909 97.857603"
   version="1.1"
   id="svg1"
   xmlns="http://www.w3.org/2000/svg"
   xmlns:svg="http://www.w3.org/2000/svg">
  <defs
     id="defs1" />
  <g
     id="layer1"
     transform="translate(-0.00103398,17.866614)">
    <path
       id="path3"
       style="fill:#ff86ff;fill-opacity:1;stroke-width:0.264583"
       d="M -40.875292,0.00465088 A 10.011206,10.011206 0 0 0 -50.887084,10.016443 l 0.0026,64.978979 9.992155,0.01654 0.0217,-64.051388 a 0.9783188,0.9783188 0 0 1 0.980819,-0.9777178 l 7.962305,0.018087 a 1.0345044,1.0345044 0 0 1 1.032495,1.034045 l 0.0057,27.58488 0.0016,36.375557 h 0.0062 l 10e-4,4.995561 h 10.004558 l -0.0026,-54.599768 0.0047,-14.430644 a 0.9783188,0.9783188 0 0 1 0.980818,-0.977716 l 7.962305,0.018087 a 1.0345044,1.0345044 0 0 1 1.032495,1.034045 l 0.01447,68.955998 h 10.00455682 l -0.003617,-69.969372 A 10.01707,10.01707 0 0 0 -10.899344,0.00516764 l -9.979236,-5.1676e-4 a 10.011206,10.011206 0 0 0 -5.008997,1.40921632 10.01707,10.01707 0 0 0 -5.008996,-1.40869956 z m 50.888366,0 A 10.011206,10.011206 0 0 0 0.00128223,10.016443 l 0.00206706,64.978979 9.99215491,0.01654 0.01602,-46.503105 a 4.9852481,4.9965973 0 0 0 2.884062,0.928109 4.9852481,4.9965973 0 0 0 4.975923,-4.996594 v -0.03669 a 4.9852481,4.9965973 0 0 0 -5.012614,-4.959904 4.9852481,4.9965973 0 0 0 -2.84427,0.925009 l 0.0031,-9.408212 a 0.9783188,0.9783188 0 0 1 0.980302,-0.9777178 l 7.962821,0.018087 a 1.0345044,1.0345044 0 0 1 1.031979,1.034045 l 0.01447,68.955998 h 10.004558 l -0.0036,-69.969372 A 10.01707,10.01707 0 0 0 19.991793,0.00516764 Z m 30.869434,0 A 10.011206,10.011206 0 0 0 30.870716,10.016443 l 0.0026,64.978979 9.992155,0.01654 0.0217,-64.051388 a 0.9783188,0.9783188 0 0 1 0.980818,-0.9777178 l 7.962305,0.018087 a 1.0345044,1.0345044 0 0 1 1.032495,1.034045 l 0.0062,27.58488 0.0016,36.375557 h 0.0062 l 10e-4,4.995561 h 10.004558 l -0.0031,-54.599768 0.0052,-14.430644 a 0.9783188,0.9783188 0 0 1 0.980818,-0.977716 l 7.962305,0.018087 a 1.0345044,1.0345044 0 0 1 1.032495,1.034045 l 0.01447,68.955998 h 10.004557 l -0.0041,-69.969372 A 10.01707,10.01707 0 0 0 70.858456,0.00516764 L 60.87922,0.00465088 A 10.011206,10.011206 0 0 0 55.870223,1.4138672 10.01707,10.01707 0 0 0 50.861227,0.00516764 Z m 50.888367,0 A 10.011206,10.011206 0 0 0 81.759083,10.016443 l 0.0021,64.978979 9.992155,0.01654 0.01602,-46.503105 a 4.9852481,4.9965973 0 0 0 2.884062,0.928109 4.9852481,4.9965973 0 0 0 4.975924,-4.996594 v -0.03669 a 4.9852481,4.9965973 0 0 0 -5.012614,-4.959904 4.9852481,4.9965973 0 0 0 -2.844271,0.925009 l 0.0031,-9.408212 a 0.9783188,0.9783188 0 0 1 0.980302,-0.9777178 l 7.962819,0.018087 a 1.0345044,1.0345044 0 0 1 1.03198,1.034045 l 0.0145,68.955998 h 10.00455 l -0.004,-69.969372 A 10.01707,10.01707 0 0 0 101.74959,0.00516764 Z m 51.900705,0 0.004,69.96937212 c 3.4e-4,5.531566 4.48435,10.015797 10.01592,10.016443 l 9.97872,5.17e-4 c 5.52948,3.23e-4 10.01211,-4.482309 10.01179,-10.011792 l -0.002,-64.9789794 -9.99216,-0.016536 -0.0222,64.0513874 c -3.3e-4,0.540848 -0.43945,0.978813 -0.9803,0.977718 l -7.96282,-0.01809 c -0.57018,-0.0014 -1.03173,-0.46387 -1.03198,-1.034045 L 153.67614,0.00465088 Z M 112.79543,0.02015381 V 59.501278 a 15.014985,15.005585 0 0 0 -0.0388,0.571541 15.014985,15.005585 0 0 0 0.0388,0.515731 v 19.356441 h 10.00404 v -5.806364 a 15.014985,15.005585 0 0 0 4.9997,0.884701 15.014985,15.005585 0 0 0 14.98771,-15.005286 l -5.1e-4,-0.110071 A 15.014985,15.005585 0 0 0 127.6891,45.012756 15.014985,15.005585 0 0 0 122.79947,45.894873 V 0.02015381 Z"
       transform="translate(50.888118)" />
    <path
       id="text13"
       style="white-space:pre"
       d="m -47.999999,-107.77675 v 1.03133 h 3.117011 v 7.693313 h 1.160492 v -7.693313 h 3.117011 v -1.03133 z m 8.566426,0 v 8.724643 h 5.748222 v -1.031333 h -4.588205 v -3.23995 h 4.588205 v -1.03133 h -4.588205 v -2.3907 h 4.588205 v -1.03133 z m 9.744048,0 -3.175535,8.724643 h 1.177622 l 0.855501,-2.431623 h 3.773148 l 0.855501,2.431623 h 1.236622 l -3.176011,-8.724643 z m 6.047029,0 v 8.724643 h 1.083888 v -7.517553 l 2.408058,5.11543 h 0.691348 l 2.426139,-5.11543 v 7.517553 h 1.160017 v -8.724643 h -1.611558 l -2.249615,4.85752 -2.326219,-4.85752 z m -5.302867,1.01388 1.529243,4.28302 h -3.064196 z"
       transform="matrix(1.0860801,0,0,1.7171497,52.396427,167.2022)" />
  </g>
</svg>
